<svg width="40" height="40" viewBox="0 0 40 40" fill="none" xmlns="http://www.w3.org/2000/svg">
<g clip-path="url(#clip0_5503_18293)">
<rect x="16.6719" y="6.67188" width="21.6667" height="30" fill="#D4F7DC"/>
<path d="M30.8333 39.1667C35.4357 39.1667 39.1667 35.4357 39.1667 30.8333C39.1667 26.231 35.4357 22.5 30.8333 22.5C26.231 22.5 22.5 26.231 22.5 30.8333C22.5 35.4357 26.231 39.1667 30.8333 39.1667Z" stroke="#15692A" stroke-linecap="round" stroke-linejoin="round"/>
<path d="M27.5 31.6654L29.305 33.4704C29.3906 33.5558 29.4937 33.6216 29.6073 33.6632C29.7209 33.7048 29.8421 33.7211 29.9626 33.7111C30.0832 33.7011 30.2001 33.665 30.3052 33.6053C30.4104 33.5456 30.5013 33.4637 30.5717 33.3654L34.1667 28.332" stroke="#15692A" stroke-linecap="round" stroke-linejoin="round"/>
<path d="M0.832031 25.832C0.832031 23.1799 1.8856 20.6363 3.76096 18.761C5.63633 16.8856 8.17987 15.832 10.832 15.832C13.4842 15.832 16.0277 16.8856 17.9031 18.761C19.7785 20.6363 20.832 23.1799 20.832 25.832H0.832031Z" stroke="#15692A" stroke-linecap="round" stroke-linejoin="round"/>
<path d="M10.832 13.332C14.2838 13.332 17.082 10.5338 17.082 7.08203C17.082 3.63025 14.2838 0.832031 10.832 0.832031C7.38025 0.832031 4.58203 3.63025 4.58203 7.08203C4.58203 10.5338 7.38025 13.332 10.832 13.332Z" stroke="#15692A" stroke-linecap="round" stroke-linejoin="round"/>
<path d="M26.668 13.332C30.1197 13.332 32.918 10.5338 32.918 7.08203C32.918 3.63025 30.1197 0.832031 26.668 0.832031C23.2162 0.832031 20.418 3.63025 20.418 7.08203C20.418 10.5338 23.2162 13.332 26.668 13.332Z" stroke="#15692A" stroke-linecap="round" stroke-linejoin="round"/>
<path d="M32.4509 17.6747C30.8951 16.5715 29.0562 15.9362 27.1512 15.8438C25.2462 15.7514 23.3545 16.2056 21.6992 17.153" stroke="#15692A" stroke-linecap="round" stroke-linejoin="round"/>
</g>
<defs>
<clipPath id="clip0_5503_18293">
<rect width="40" height="40" fill="white"/>
</clipPath>
</defs>
</svg>
