<svg width="40" height="40" viewBox="0 0 40 40" fill="none" xmlns="http://www.w3.org/2000/svg">
<path d="M7.5 13.75C9.57107 13.75 11.25 12.0711 11.25 10C11.25 7.92893 9.57107 6.25 7.5 6.25C5.42893 6.25 3.75 7.92893 3.75 10C3.75 12.0711 5.42893 13.75 7.5 13.75Z" fill="#F0DAFB"/>
<path d="M7.5 16.25C5.8424 16.25 4.25268 16.9085 3.08058 18.0806C1.90848 19.2527 1.25 20.8424 1.25 22.5V26.25H3.75L5 36.25H10" stroke="#1E0A3C" stroke-linecap="round" stroke-linejoin="round"/>
<path d="M32.5 13.75C34.5711 13.75 36.25 12.0711 36.25 10C36.25 7.92893 34.5711 6.25 32.5 6.25C30.4289 6.25 28.75 7.92893 28.75 10C28.75 12.0711 30.4289 13.75 32.5 13.75Z" fill="#F0DAFB"/>
<path d="M32.5 16.25C34.1576 16.25 35.7473 16.9085 36.9194 18.0806C38.0915 19.2527 38.75 20.8424 38.75 22.5V26.25H36.25L35 36.25H30" stroke="#1E0A3C" stroke-linecap="round" stroke-linejoin="round"/>
<path d="M20 11.25C22.7614 11.25 25 9.01142 25 6.25C25 3.48858 22.7614 1.25 20 1.25C17.2386 1.25 15 3.48858 15 6.25C15 9.01142 17.2386 11.25 20 11.25Z" fill="#F0DAFB"/>
<path d="M28.75 22.5C28.75 20.1794 27.8281 17.9538 26.1872 16.3128C24.5462 14.6719 22.3206 13.75 20 13.75C17.6794 13.75 15.4538 14.6719 13.8128 16.3128C12.1719 17.9538 11.25 20.1794 11.25 22.5V26.25H15L16.25 38.75H23.75L25 26.25H28.75V22.5Z" stroke="#1E0A3C" stroke-linecap="round" stroke-linejoin="round"/>
</svg>
