<svg width="40" height="40" viewBox="0 0 40 40" fill="none" xmlns="http://www.w3.org/2000/svg">
<path d="M21.25 6.25H13.75C13.087 6.25 12.4511 6.51339 11.9822 6.98223C11.5134 7.45107 11.25 8.08696 11.25 8.75V36.25C11.25 36.913 11.5134 37.5489 11.9822 38.0178C12.4511 38.4866 13.087 38.75 13.75 38.75H36.25C36.913 38.75 37.5489 38.4866 38.0178 38.0178C38.4866 37.5489 38.75 36.913 38.75 36.25V8.75C38.75 8.08696 38.4866 7.45107 38.0178 6.98223C37.5489 6.51339 36.913 6.25 36.25 6.25H28.75" fill="#B3CDFF"/>
<path d="M14.5859 6.25H7.08594C6.4229 6.25 5.78701 6.51339 5.31817 6.98223C4.84933 7.45107 4.58594 8.08696 4.58594 8.75V36.25C4.58594 36.913 4.84933 37.5489 5.31817 38.0178C5.78701 38.4866 6.4229 38.75 7.08594 38.75H29.5859C30.249 38.75 30.8849 38.4866 31.3537 38.0178C31.8225 37.5489 32.0859 36.913 32.0859 36.25V8.75C32.0859 8.08696 31.8225 7.45107 31.3537 6.98223C30.8849 6.51339 30.249 6.25 29.5859 6.25H22.0859" stroke="#0050C8" stroke-linecap="round" stroke-linejoin="round"/>
<path d="M22.0859 5C22.0859 4.00544 21.6908 3.05161 20.9876 2.34835C20.2843 1.64509 19.3305 1.25 18.3359 1.25C17.3414 1.25 16.3875 1.64509 15.6843 2.34835C14.981 3.05161 14.5859 4.00544 14.5859 5V10C14.5859 10.3315 14.7176 10.6495 14.9521 10.8839C15.1865 11.1183 15.5044 11.25 15.8359 11.25H20.8359C21.1675 11.25 21.4854 11.1183 21.7198 10.8839C21.9542 10.6495 22.0859 10.3315 22.0859 10V5Z" stroke="#0050C8" stroke-linecap="round" stroke-linejoin="round"/>
<path d="M18.3359 27.5C21.4425 27.5 23.9609 24.9816 23.9609 21.875C23.9609 18.7684 21.4425 16.25 18.3359 16.25C15.2293 16.25 12.7109 18.7684 12.7109 21.875C12.7109 24.9816 15.2293 27.5 18.3359 27.5Z" stroke="#0050C8" stroke-linecap="round" stroke-linejoin="round"/>
<path d="M28.3359 38.7492C28.0104 36.3279 26.8173 34.107 24.9782 32.4987C23.1392 30.8903 20.7791 30.0039 18.3359 30.0039C15.8928 30.0039 13.5327 30.8903 11.6936 32.4987C9.85457 34.107 8.66152 36.3279 8.33594 38.7492" stroke="#0050C8" stroke-linecap="round" stroke-linejoin="round"/>
</svg>
