<svg width="120" height="120" viewBox="0 0 120 120" fill="none" xmlns="http://www.w3.org/2000/svg">
<path d="M12 65.1133C12 77.8437 17.0571 90.0527 26.0589 99.0544C35.0606 108.056 47.2696 113.113 60 113.113C72.7304 113.113 84.9394 108.056 93.9411 99.0544C102.943 90.0527 108 77.8437 108 65.1133C108 52.3829 102.943 40.1739 93.9411 31.1722C84.9394 22.1704 72.7304 17.1133 60 17.1133C47.2696 17.1133 35.0606 22.1704 26.0589 31.1722C17.0571 40.1739 12 52.3829 12 65.1133Z" fill="#F8F7FA"/>
<path opacity="0.15" d="M73.0247 106.32C73.0247 105.385 67.4663 104.627 60.6095 104.627C53.7527 104.627 48.1943 105.385 48.1943 106.32C48.1943 107.255 53.7527 108.013 60.6095 108.013C67.4663 108.013 73.0247 107.26 73.0247 106.32Z" fill="#1E0A3C"/>
<path d="M32.3999 91.1138C32.3995 91.4001 32.4923 91.6788 32.6641 91.9078C32.836 92.1368 33.0777 92.3037 33.3527 92.3834L59.2163 99.9278C59.4742 100.003 59.7421 100.038 60.0107 100.032V69.0974L32.3999 61.0442V91.1138Z" fill="#F7E5C6"/>
<path d="M53.9735 79.3778L60.0107 73.3406V69.0962L32.3999 61.0442V73.0862L53.9735 79.3778Z" fill="#F0D5A8"/>
<path d="M60.0107 69.0974L32.3999 61.0442L60.0107 52.991L87.6203 61.1462L60.0107 69.0974Z" fill="#DEBB7E" stroke="#1E0A3C" stroke-width="0.24" stroke-linecap="round" stroke-linejoin="round"/>
<path d="M60.0107 69.0974L32.3999 61.0442L60.0107 52.991V69.0974Z" fill="#B89558" stroke="#1E0A3C" stroke-width="0.24" stroke-linecap="round" stroke-linejoin="round"/>
<path d="M60.0107 69.0972V100.032C60.2772 100.027 60.5414 99.9815 60.7943 99.8976L86.7143 91.2576C86.9787 91.1703 87.2086 91.0016 87.3714 90.7758C87.5341 90.5499 87.6212 90.2784 87.6203 90V61.146L60.0107 69.0972Z" fill="#F0D5A8"/>
<path d="M65.9639 79.3776L87.6203 73.0368L87.6215 61.146L60.0107 69.096V72.5532L65.9639 79.3776Z" fill="#DEBB7E"/>
<path d="M60.0107 69.0974L32.3999 61.0442V91.1138C32.3995 91.4001 32.4923 91.6788 32.6641 91.9078C32.836 92.1368 33.0777 92.3037 33.3527 92.3834L59.2163 99.9266C59.733 100.077 60.2834 100.067 60.7943 99.8978L86.7143 91.2578C86.9786 91.1705 87.2086 91.0018 87.3713 90.776C87.534 90.5501 87.6212 90.2786 87.6203 90.0002V61.1462L60.0107 69.0974Z" stroke="#1E0A3C" stroke-width="0.24" stroke-linecap="round" stroke-linejoin="round"/>
<path d="M27.732 53.5585C27.5062 53.6168 27.2998 53.7338 27.134 53.8977C26.9681 54.0616 26.8486 54.2665 26.7876 54.4916C26.7266 54.7167 26.7264 54.9539 26.7869 55.1791C26.8474 55.4043 26.9665 55.6095 27.132 55.7737L32.4 61.0441L60.0108 52.9909L52.9644 47.9581C52.6492 47.7326 52.2881 47.5792 51.9069 47.5089C51.5257 47.4386 51.1337 47.4531 50.7588 47.5513L27.732 53.5585Z" fill="#DEBB7E" stroke="#1E0A3C" stroke-width="0.24" stroke-linecap="round" stroke-linejoin="round"/>
<path d="M54.2159 74.8922C53.8801 75.2282 53.4599 75.4676 52.9996 75.5852C52.5393 75.7028 52.0558 75.6943 51.5999 75.5606L27.6419 68.5718C27.4208 68.5082 27.2201 68.388 27.0597 68.2229C26.8994 68.0578 26.785 67.8537 26.7278 67.6308C26.6707 67.4079 26.6729 67.1739 26.7341 66.9521C26.7953 66.7303 26.9134 66.5283 27.0767 66.3662L32.3999 61.0442L60.0107 69.0974L54.2159 74.8922Z" fill="#F0D5A8" stroke="#1E0A3C" stroke-width="0.24" stroke-linecap="round" stroke-linejoin="round"/>
<path d="M60.0107 69.0972V100.032" stroke="#1E0A3C" stroke-width="0.24" stroke-linecap="round" stroke-linejoin="round"/>
<path d="M91.902 53.574C92.1632 53.6424 92.4016 53.7785 92.5933 53.9685C92.785 54.1586 92.9232 54.3959 92.9938 54.6564C93.0644 54.917 93.065 55.1916 92.9955 55.4524C92.926 55.7133 92.7889 55.9511 92.598 56.142L87.6 61.146L60.0156 53.106L67.4772 47.7768C67.6597 47.6458 67.8688 47.5564 68.0896 47.5149C68.3104 47.4734 68.5376 47.4809 68.7552 47.5368L91.902 53.574Z" fill="#F0D5A8" stroke="#1E0A3C" stroke-width="0.24" stroke-linecap="round" stroke-linejoin="round"/>
<path d="M48.5 35C47.5 36.8333 46.6 41.6 51 46C56.5 51.5 56.5 54 54.5 59" stroke="#1E0A3C" stroke-width="0.24"/>
<path d="M64.2216 23C65.2216 24.8333 66.1216 29.6 61.7216 34C56.2216 39.5 56.2217 42 58.2217 47" stroke="#1E0A3C" stroke-width="0.24"/>
<path d="M72.2216 35C73.2216 36.8333 74.1216 41.6 69.7216 46C64.2216 51.5 64.2217 54 66.2217 59" stroke="#1E0A3C" stroke-width="0.24"/>
<path d="M66.264 75.4452C66.4585 75.6397 66.7017 75.7782 66.9681 75.8464C67.2346 75.9146 67.5144 75.9099 67.7784 75.8328L92.0052 68.7672C92.2609 68.6927 92.4928 68.5529 92.678 68.3615C92.8632 68.1701 92.9953 67.9338 93.0614 67.6758C93.1274 67.4177 93.125 67.147 93.0545 66.8902C92.984 66.6333 92.8478 66.3993 92.6592 66.2112L87.6 61.146L60.0156 69.186L66.264 75.4452Z" fill="#DEBB7E" stroke="#1E0A3C" stroke-width="0.24" stroke-linecap="round" stroke-linejoin="round"/>
</svg>
