<svg width="33" height="35" viewBox="0 0 33 35" fill="none" xmlns="http://www.w3.org/2000/svg">
<path d="M8.76321 0.832031H21.8953C22.4865 0.832031 23.0585 1.04151 23.5098 1.42326L31.4491 8.1386C32.0107 8.61361 32.3346 9.31183 32.3346 10.0474V30.9709C32.3346 33.9552 32.3006 34.1654 29.2394 34.1654H8.76321C5.70205 34.1654 5.66797 33.9552 5.66797 30.9709V4.02648C5.66797 1.04224 5.70205 0.832031 8.76321 0.832031Z" fill="#E9EAEE"/>
<rect y="18.5" width="19" height="11" rx="2" fill="#A066AA"/>
<path d="M6.55508 23.189H5.75008V26.5H5.11308V23.189H4.61608V22.664H5.11308V22.391C5.11308 21.9617 5.22274 21.649 5.44208 21.453C5.66608 21.2523 6.02308 21.152 6.51308 21.152V21.684C6.23308 21.684 6.03474 21.74 5.91808 21.852C5.80608 21.9593 5.75008 22.139 5.75008 22.391V22.664H6.55508V23.189ZM7.62679 22.041C7.50546 22.041 7.40279 21.999 7.31879 21.915C7.23479 21.831 7.19279 21.7283 7.19279 21.607C7.19279 21.4857 7.23479 21.383 7.31879 21.299C7.40279 21.215 7.50546 21.173 7.62679 21.173C7.74346 21.173 7.84146 21.215 7.92079 21.299C8.00479 21.383 8.04679 21.4857 8.04679 21.607C8.04679 21.7283 8.00479 21.831 7.92079 21.915C7.84146 21.999 7.74346 22.041 7.62679 22.041ZM7.93479 22.664V26.5H7.29779V22.664H7.93479ZM9.65745 21.32V26.5H9.02045V21.32H9.65745ZM14.2431 24.435C14.2431 24.5563 14.2361 24.6847 14.2221 24.82H11.1561C11.1794 25.198 11.3078 25.4943 11.5411 25.709C11.7791 25.919 12.0661 26.024 12.4021 26.024C12.6774 26.024 12.9061 25.961 13.0881 25.835C13.2748 25.7043 13.4054 25.5317 13.4801 25.317H14.1661C14.0634 25.6857 13.8581 25.9867 13.5501 26.22C13.2421 26.4487 12.8594 26.563 12.4021 26.563C12.0381 26.563 11.7114 26.4813 11.4221 26.318C11.1374 26.1547 10.9134 25.9237 10.7501 25.625C10.5868 25.3217 10.5051 24.9717 10.5051 24.575C10.5051 24.1783 10.5844 23.8307 10.7431 23.532C10.9018 23.2333 11.1234 23.0047 11.4081 22.846C11.6974 22.6827 12.0288 22.601 12.4021 22.601C12.7661 22.601 13.0881 22.6803 13.3681 22.839C13.6481 22.9977 13.8628 23.217 14.0121 23.497C14.1661 23.7723 14.2431 24.085 14.2431 24.435ZM13.5851 24.302C13.5851 24.0593 13.5314 23.8517 13.4241 23.679C13.3168 23.5017 13.1698 23.3687 12.9831 23.28C12.8011 23.1867 12.5981 23.14 12.3741 23.14C12.0521 23.14 11.7768 23.2427 11.5481 23.448C11.3241 23.6533 11.1958 23.938 11.1631 24.302H13.5851Z" fill="white"/>
</svg>
