<svg width="41" height="40" viewBox="0 0 41 40" fill="none" xmlns="http://www.w3.org/2000/svg">
<path fill-rule="evenodd" clip-rule="evenodd" d="M8 35.0013H36.3333C37.714 35.0013 38.8333 33.882 38.8333 32.5013V14.168C38.8333 12.7873 37.714 11.668 36.3333 11.668H18.8333L14.5656 7.4002C14.0967 6.93136 13.4608 6.66797 12.7978 6.66797H8C6.61929 6.66797 5.5 7.78726 5.5 9.16797V32.5013C5.5 33.882 6.61929 35.0013 8 35.0013Z" fill="#D1822C"/>
<path fill-rule="evenodd" clip-rule="evenodd" d="M4.66797 31.6654H33.0013C34.382 31.6654 35.5013 30.5461 35.5013 29.1654V10.832C35.5013 9.45132 34.382 8.33203 33.0013 8.33203H15.5013L11.2335 4.06426C10.7647 3.59542 10.1288 3.33203 9.46577 3.33203H4.66797C3.28726 3.33203 2.16797 4.45132 2.16797 5.83203V29.1654C2.16797 30.5461 3.28726 31.6654 4.66797 31.6654Z" fill="#F3B357"/>
<path fill-rule="evenodd" clip-rule="evenodd" d="M24.5591 22.508H21.2983V25.8542C21.2983 26.3144 20.9252 26.6875 20.465 26.6875H18.7595C18.2992 26.6875 17.9262 26.3144 17.9262 25.8542V22.508H14.6654C14.2051 22.508 13.832 22.135 13.832 21.6747C13.832 21.4775 13.902 21.2867 14.0294 21.1362L18.9762 15.2935C19.2736 14.9422 19.7995 14.8986 20.1507 15.196C20.1859 15.2257 20.2185 15.2583 20.2482 15.2935L25.1951 21.1362C25.4925 21.4875 25.4488 22.0133 25.0976 22.3107C24.9471 22.4381 24.7563 22.508 24.5591 22.508Z" fill="#EB9B2C"/>
</svg>
