<svg width="106" height="32" viewBox="0 0 106 32" fill="none" xmlns="http://www.w3.org/2000/svg">
<path d="M5.27565 27.1664H1.18312V9.47717H5.27565V27.1664ZM5.71534 4.30232C5.71534 5.06896 5.46731 5.67777 4.97125 6.12874C4.47518 6.5797 3.88893 6.80519 3.21247 6.80519C2.51347 6.80519 1.91594 6.5797 1.41988 6.12874C0.923813 5.67777 0.675781 5.06896 0.675781 4.30232C0.675781 3.51312 0.923813 2.89305 1.41988 2.44208C1.91594 1.99111 2.51347 1.76562 3.21247 1.76562C3.88893 1.76562 4.47518 1.99111 4.97125 2.44208C5.46731 2.89305 5.71534 3.51312 5.71534 4.30232Z" fill="#1E0A3C"/>
<path d="M10.4967 10.0522C11.2859 9.82667 12.3119 9.61246 13.5746 9.40953C14.8373 9.20659 16.2353 9.10512 17.7686 9.10512C19.2117 9.10512 20.418 9.30806 21.3876 9.71393C22.3572 10.0973 23.1238 10.6497 23.6876 11.3712C24.2738 12.0702 24.6797 12.9271 24.9052 13.9418C25.1532 14.9339 25.2772 16.0275 25.2772 17.2225V27.1664H21.1847V17.8652C21.1847 16.9181 21.117 16.1177 20.9817 15.4638C20.869 14.7873 20.6661 14.2462 20.3729 13.8403C20.1024 13.4119 19.719 13.1075 19.223 12.9271C18.7495 12.7241 18.1632 12.6227 17.4642 12.6227C16.9456 12.6227 16.4044 12.6565 15.8407 12.7241C15.277 12.7918 14.8599 12.8482 14.5893 12.8933V27.1664H10.4967V10.0522Z" fill="#1E0A3C"/>
<path d="M29.3008 18.3387C29.3008 17.0309 29.5037 15.8133 29.9096 14.6858C30.3155 13.5359 30.8904 12.5438 31.6345 11.7095C32.4012 10.8752 33.3257 10.2213 34.408 9.74775C35.4903 9.27424 36.7079 9.03748 38.0608 9.03748C39.7294 9.03748 41.3078 9.34188 42.796 9.95069L41.9166 13.2991C41.4431 13.0962 40.9019 12.9271 40.2931 12.7918C39.7069 12.6565 39.0755 12.5888 38.3991 12.5888C36.7981 12.5888 35.5805 13.0962 34.7462 14.1109C33.9119 15.103 33.4948 16.5123 33.4948 18.3387C33.4948 20.0975 33.8894 21.4955 34.6786 22.5327C35.4678 23.5474 36.7981 24.0547 38.6696 24.0547C39.3686 24.0547 40.0564 23.9871 40.7328 23.8518C41.4093 23.7165 41.9955 23.5474 42.4916 23.3444L43.0666 26.7267C42.6156 26.9522 41.9279 27.1551 41.0034 27.3355C40.1015 27.5159 39.1657 27.6061 38.1961 27.6061C36.6854 27.6061 35.3663 27.3806 34.2389 26.9296C33.134 26.4561 32.2095 25.8135 31.4654 25.0017C30.7439 24.1674 30.2027 23.1866 29.8419 22.0592C29.4812 20.9092 29.3008 19.669 29.3008 18.3387Z" fill="#1E0A3C"/>
<path d="M86.8135 13.1656C86.4753 13.0529 86.0018 12.9402 85.393 12.8274C84.8067 12.6921 84.119 12.6245 83.3298 12.6245C82.8788 12.6245 82.394 12.6696 81.8754 12.7598C81.3793 12.85 81.0298 12.9289 80.8269 12.9965V27.1682H76.7344V10.3246C77.5236 10.0314 78.5044 9.76084 79.6769 9.51281C80.872 9.24223 82.1911 9.10694 83.6342 9.10694C83.9048 9.10694 84.2204 9.12949 84.5812 9.17458C84.942 9.19713 85.3028 9.24223 85.6635 9.30987C86.0243 9.35497 86.3738 9.42262 86.712 9.51281C87.0503 9.58045 87.3208 9.6481 87.5238 9.71574L86.8135 13.1656Z" fill="#1E0A3C"/>
<path d="M93.5889 18.2729C93.5889 20.0767 94.0173 21.4973 94.8741 22.5345C95.7309 23.5492 96.9147 24.0565 98.4255 24.0565C99.0794 24.0565 99.6318 24.034 100.083 23.9889C100.556 23.9212 100.94 23.8536 101.233 23.7859V13.6392C100.872 13.3911 100.387 13.1656 99.7784 12.9627C99.1921 12.7372 98.5608 12.6245 97.8843 12.6245C96.3961 12.6245 95.3025 13.1318 94.6035 14.1465C93.9271 15.1612 93.5889 16.5366 93.5889 18.2729ZM105.325 26.627C104.514 26.8751 103.488 27.1005 102.247 27.3035C101.03 27.5064 99.7446 27.6079 98.3917 27.6079C96.9937 27.6079 95.7422 27.3937 94.6374 26.9653C93.5325 26.5368 92.5854 25.928 91.7963 25.1388C91.0296 24.3271 90.4321 23.3575 90.0037 22.2301C89.5978 21.0801 89.3949 19.7949 89.3949 18.3743C89.3949 16.9763 89.564 15.7136 89.9022 14.5862C90.263 13.4362 90.7816 12.4554 91.458 11.6436C92.1345 10.8319 92.9575 10.2118 93.9271 9.78339C94.8967 9.33242 96.0128 9.10694 97.2755 9.10694C98.1323 9.10694 98.8877 9.2084 99.5416 9.41134C100.196 9.61428 100.759 9.83976 101.233 10.0878V1.59833L105.325 0.921875V26.627Z" fill="#1E0A3C"/>
<path d="M57.0503 25.6399L59.8368 20.8137H50.8218C52.1871 23.175 54.423 24.9075 57.0503 25.6399ZM49.7577 18.212H55.3306L50.8218 10.4055C49.9069 11.9873 49.4266 13.7829 49.4299 15.6102C49.4299 16.5078 49.5443 17.3794 49.7577 18.212ZM52.5454 8.18489L55.3293 13.0085L59.8368 5.2033C57.1088 5.19974 54.4893 6.27093 52.5454 8.18489ZM62.6233 5.58055L59.8368 10.4068H68.8518C67.4865 8.04553 65.2506 6.31302 62.6233 5.58055ZM69.9159 13.0085H64.343L68.8505 20.815C69.7659 19.2334 70.2466 17.4377 70.2438 15.6102C70.2438 14.7126 70.1293 13.8411 69.9159 13.0085ZM67.1282 23.0356L64.3443 18.212L59.8368 26.0172C62.5648 26.0207 65.1843 24.9496 67.1282 23.0356ZM59.8368 28.6189C52.6521 28.6189 46.8281 22.7949 46.8281 15.6102C46.8281 8.42555 52.6521 2.60156 59.8368 2.60156C67.0215 2.60156 72.8455 8.42555 72.8455 15.6102C72.8455 22.7949 67.0215 28.6189 59.8368 28.6189ZM61.3393 13.0085H58.3343L56.8331 15.6102L58.3343 18.212H61.3393L62.8405 15.6102L61.3393 13.0085Z" fill="#FFB321"/>
</svg>
