<svg width="40" height="40" viewBox="0 0 40 40" fill="none" xmlns="http://www.w3.org/2000/svg">
<g clip-path="url(#clip0_211_66344)">
<rect x="16.6699" y="6.67004" width="21.6667" height="30" fill="#FFD4D2"/>
<path d="M30.8333 39.1667C35.4357 39.1667 39.1667 35.4357 39.1667 30.8333C39.1667 26.231 35.4357 22.5 30.8333 22.5C26.231 22.5 22.5 26.231 22.5 30.8333C22.5 35.4357 26.231 39.1667 30.8333 39.1667Z" stroke="#9F1F17" stroke-linecap="round" stroke-linejoin="round"/>
<path d="M27.6667 27.667L34 34.0002" stroke="#9F1F17" stroke-linecap="round" stroke-linejoin="round"/>
<path d="M27.667 34L34.0002 27.6668" stroke="#9F1F17" stroke-linecap="round" stroke-linejoin="round"/>
<path d="M0.833252 25.8334C0.833252 23.1812 1.88682 20.6377 3.76218 18.7623C5.63755 16.8869 8.18109 15.8334 10.8333 15.8334C13.4854 15.8334 16.029 16.8869 17.9043 18.7623C19.7797 20.6377 20.8333 23.1812 20.8333 25.8334H0.833252Z" stroke="#9F1F17" stroke-linecap="round" stroke-linejoin="round"/>
<path d="M10.8333 13.3333C14.285 13.3333 17.0833 10.535 17.0833 7.08325C17.0833 3.63147 14.285 0.833252 10.8333 0.833252C7.38147 0.833252 4.58325 3.63147 4.58325 7.08325C4.58325 10.535 7.38147 13.3333 10.8333 13.3333Z" stroke="#9F1F17" stroke-linecap="round" stroke-linejoin="round"/>
<path d="M26.6667 13.3333C30.1185 13.3333 32.9167 10.535 32.9167 7.08325C32.9167 3.63147 30.1185 0.833252 26.6667 0.833252C23.215 0.833252 20.4167 3.63147 20.4167 7.08325C20.4167 10.535 23.215 13.3333 26.6667 13.3333Z" stroke="#9F1F17" stroke-linecap="round" stroke-linejoin="round"/>
<path d="M32.4501 17.675C30.8924 16.5704 29.0511 15.935 27.1437 15.8437C25.2364 15.7524 23.3428 16.2092 21.6868 17.16" stroke="#9F1F17" stroke-linecap="round" stroke-linejoin="round"/>
</g>
<defs>
<clipPath id="clip0_211_66344">
<rect width="40" height="40" fill="white"/>
</clipPath>
</defs>
</svg>
