<svg width="40" height="40" viewBox="0 0 40 40" fill="none" xmlns="http://www.w3.org/2000/svg">
<g clip-path="url(#clip0_211_66346)">
<rect x="16.6699" y="6.66992" width="21.6667" height="30" fill="#D4F7DC"/>
<path d="M30.8333 39.1667C35.4357 39.1667 39.1667 35.4357 39.1667 30.8333C39.1667 26.231 35.4357 22.5 30.8333 22.5C26.231 22.5 22.5 26.231 22.5 30.8333C22.5 35.4357 26.231 39.1667 30.8333 39.1667Z" stroke="#15692A" stroke-linecap="round" stroke-linejoin="round"/>
<path d="M27.5 31.6667L29.305 33.4717C29.3906 33.5572 29.4937 33.623 29.6073 33.6645C29.7209 33.7061 29.8421 33.7225 29.9626 33.7125C30.0832 33.7025 30.2001 33.6664 30.3052 33.6067C30.4104 33.547 30.5013 33.4651 30.5717 33.3667L34.1667 28.3334" stroke="#15692A" stroke-linecap="round" stroke-linejoin="round"/>
<path d="M0.833252 25.8334C0.833252 23.1812 1.88682 20.6377 3.76218 18.7623C5.63755 16.8869 8.18109 15.8334 10.8333 15.8334C13.4854 15.8334 16.029 16.8869 17.9043 18.7623C19.7797 20.6377 20.8333 23.1812 20.8333 25.8334H0.833252Z" stroke="#15692A" stroke-linecap="round" stroke-linejoin="round"/>
<path d="M10.8333 13.3333C14.285 13.3333 17.0833 10.535 17.0833 7.08325C17.0833 3.63147 14.285 0.833252 10.8333 0.833252C7.38147 0.833252 4.58325 3.63147 4.58325 7.08325C4.58325 10.535 7.38147 13.3333 10.8333 13.3333Z" stroke="#15692A" stroke-linecap="round" stroke-linejoin="round"/>
<path d="M26.6667 13.3333C30.1185 13.3333 32.9167 10.535 32.9167 7.08325C32.9167 3.63147 30.1185 0.833252 26.6667 0.833252C23.215 0.833252 20.4167 3.63147 20.4167 7.08325C20.4167 10.535 23.215 13.3333 26.6667 13.3333Z" stroke="#15692A" stroke-linecap="round" stroke-linejoin="round"/>
<path d="M32.4499 17.6749C30.8941 16.5717 29.0553 15.9365 27.1503 15.844C25.2452 15.7516 23.3535 16.2059 21.6982 17.1533" stroke="#15692A" stroke-linecap="round" stroke-linejoin="round"/>
</g>
<defs>
<clipPath id="clip0_211_66346">
<rect width="40" height="40" fill="white"/>
</clipPath>
</defs>
</svg>
