<svg width="40" height="40" viewBox="0 0 40 40" fill="none" xmlns="http://www.w3.org/2000/svg">
<rect x="16.6699" y="6.66992" width="21.6667" height="30" fill="#FFEBCC"/>
<path d="M31.1529 37.9872C35.5635 37.9872 39.139 34.4117 39.139 30.0011C39.139 25.5905 35.5635 22.015 31.1529 22.015C26.7423 22.015 23.1667 25.5905 23.1667 30.0011C23.1667 34.4117 26.7423 37.9872 31.1529 37.9872Z" stroke="#806B00" stroke-linecap="round" stroke-linejoin="round"/>
<path d="M31 26.1816V30.0011L35.1667 33.8205" stroke="#806B00" stroke-linecap="round" stroke-linejoin="round"/>
<path d="M0.833252 25.8334C0.833252 23.1812 1.88682 20.6377 3.76218 18.7623C5.63755 16.8869 8.18109 15.8334 10.8333 15.8334C13.4854 15.8334 16.029 16.8869 17.9043 18.7623C19.7797 20.6377 20.8333 23.1812 20.8333 25.8334H0.833252Z" stroke="#806B00" stroke-linecap="round" stroke-linejoin="round"/>
<path d="M10.8333 13.3333C14.285 13.3333 17.0833 10.535 17.0833 7.08325C17.0833 3.63147 14.285 0.833252 10.8333 0.833252C7.38147 0.833252 4.58325 3.63147 4.58325 7.08325C4.58325 10.535 7.38147 13.3333 10.8333 13.3333Z" stroke="#806B00" stroke-linecap="round" stroke-linejoin="round"/>
<path d="M26.6667 13.3333C30.1185 13.3333 32.9167 10.535 32.9167 7.08325C32.9167 3.63147 30.1185 0.833252 26.6667 0.833252C23.215 0.833252 20.4167 3.63147 20.4167 7.08325C20.4167 10.535 23.215 13.3333 26.6667 13.3333Z" stroke="#806B00" stroke-linecap="round" stroke-linejoin="round"/>
<path d="M32.4499 17.6749C30.8941 16.5717 29.0553 15.9365 27.1503 15.844C25.2452 15.7516 23.3535 16.2059 21.6982 17.1533" stroke="#806B00" stroke-linecap="round" stroke-linejoin="round"/>
</svg>
